<svg width="32" height="32" viewBox="0 0 32 32" fill="none" xmlns="http://www.w3.org/2000/svg">
  <rect x="3" y="3" width="26" height="26" rx="9" fill="#E9F7F4"/>
  <path d="M16 8.5C16.4142 8.5 16.75 8.83579 16.75 9.25V14.25H21.75C22.1642 14.25 22.5 14.5858 22.5 15C22.5 15.4142 22.1642 15.75 21.75 15.75H16.75V20.75C16.75 21.1642 16.4142 21.5 16 21.5C15.5858 21.5 15.25 21.1642 15.25 20.75V15.75H10.25C9.83579 15.75 9.5 15.4142 9.5 15C9.5 14.5858 9.83579 14.25 10.25 14.25H15.25V9.25C15.25 8.83579 15.5858 8.5 16 8.5Z" fill="#16B3A7"/>
  <rect x="6" y="6" width="20" height="20" rx="7" stroke="#16B3A7" stroke-width="1.75" opacity="0.28"/>
</svg>
